<?xml version="1.0" encoding="utf-8"?>
<!-- Generator: Adobe Illustrator 16.0.0, SVG Export Plug-In . SVG Version: 6.00 Build 0)  -->
<!DOCTYPE svg PUBLIC "-//W3C//DTD SVG 1.1//EN" "http://www.w3.org/Graphics/SVG/1.1/DTD/svg11.dtd">
<svg version="1.1" xmlns="http://www.w3.org/2000/svg" xmlns:xlink="http://www.w3.org/1999/xlink" x="0px" y="0px" width="40px"
	 height="40px" viewBox="0 0 40 40" enable-background="new 0 0 40 40" xml:space="preserve">
<g id="icn_x5F_0001_x5F_1_1_" enable-background="new    ">
	<g id="icn_x5F_0001_x5F_1">
		<g>
			<path fill-rule="evenodd" clip-rule="evenodd" fill="#5F5F5F" d="M34,11V6h-5h-1l-1-1h-6h-1h-7l-1,1h-1H6v5v1l-1,1v7v1v6l1,1v1v5
				h5h1l1,1h7h1h6l1-1h1h5v-5v-1l1-1v-6v-1v-7l-1-1V11z M31,20v1v10H21h-1H9V21v-1V9h11h1h10V20z M10,16v6l12-12h-6L10,16z M10,30h5
				l15-15v-4h-2L10,29V30z M28,30l2-2v-6l-8,8H28z M26,2H13v1h13V2z M2,27h1V13H2V27z M37,13v14h1V13H37z M13,38h14v-1H13V38z"/>
		</g>
	</g>
</g>
<g id="icn_x5F_0001_x5F_2_1_" enable-background="new    ">
	<g id="icn_x5F_0001_x5F_2">
		<g>
			<path fill-rule="evenodd" clip-rule="evenodd" fill="#C0C0C0" d="M2,12l2-2V4h6l2-2H2V12z M4,36v-6l-2-2v10h10l-2-2H4z M28,2l2,2
				h6v6l2,2V2H28z M36,36h-6l-2,2h10V28l-2,2V36z"/>
		</g>
	</g>
</g>
</svg>
