<?xml version="1.0" encoding="utf-8"?>
<!-- Generator: Adobe Illustrator 26.4.1, SVG Export Plug-In . SVG Version: 6.00 Build 0)  -->
<svg version="1.1" id="图层_1" xmlns="http://www.w3.org/2000/svg" xmlns:xlink="http://www.w3.org/1999/xlink" x="0px" y="0px"
	 viewBox="0 0 1920 108" enable-background="new 0 0 1920 108" xml:space="preserve">
<g>
	<polygon fill="#231815" points="635.7,3.35 635.7,72.59 653.87,54.05 653.87,3.35 	"/>
	<path fill="#231815" d="M621.29,87.76c-24.5-24.98-38.24-38.98-62.75-63.96V3.35h-18.18v30.4c27.79,28.32,43.37,44.21,71.17,72.55
		h18.78c9.29-9.2,14.41-14.42,23.56-23.89v-8.63h-18.71C629.84,79.3,626.76,82.18,621.29,87.76z"/>
</g>
<path fill="#231815" d="M704.73,2.48c-10.28,10.28-16.05,16.05-26.33,26.33v77.4h88.77c10.86-10.87,16.95-16.96,27.82-27.82V45.86
	V18.25V2.48H704.73z M713.42,21.15h44.99l-61.34,51.38V37.5C703.45,31.11,707.03,27.53,713.42,21.15z M759.97,87.54h-45l61.35-51.39
	v35.04C769.93,77.57,766.35,81.15,759.97,87.54z"/>
<path fill="#231815" d="M826.05,2.48v103.73h18.67V2.48H826.05z"/>
<g>
	<path d="M910.71,2.52c-7.29,7.29-12.99,12.99-18.68,18.67h97.81V2.52H910.71z"/>
	<path d="M873.25,106.25h36.12l18.68-18.68h-36.13V21.3c-5.69,5.69-11.39,11.39-18.67,18.67V106.25z"/>
	<path d="M971.17,72.08c-5.81,5.95-9.27,9.68-15.08,15.49h-0.43l-18.68,18.68h28.38c9.54-10.52,15.07-15.36,24.48-24.9V21.19
		l-18.67,18.67V72.08z"/>
	<path d="M891.92,21.3c0.04-0.03,0.07-0.07,0.11-0.11h-0.11V21.3z"/>
</g>
<path d="M1095.39,87.44c-22.63-22.64-35.32-35.33-57.96-57.96V2.52h-18.8v38.45c25.49,25.49,39.78,39.78,65.27,65.28h52.56V87.44
	H1095.39z"/>
<path fill="#231815" d="M1165.21,2.52v103.73h18.67V2.52H1165.21z"/>
<g>
	<path d="M1279.8,2.52v27.6l0.08,0.08v76.05h-18.67v-36.1c-9.56-9.56-17.02-17.02-24.48-24.48c-7.46-7.46-14.92-14.92-24.48-24.48
		V2.52h8.46l40.34,40.34V2.52H1279.8z"/>
	<path d="M1298.47,21.19L1279.8,2.52h30.37c3.64,3.64,6.49,6.49,9.34,9.34c2.84,2.84,5.68,5.68,9.33,9.33H1298.47z"/>
</g>
<g>
</g>
<g>
</g>
<g>
</g>
<g>
</g>
<g>
</g>
<g>
</g>
<g>
</g>
<g>
</g>
<g>
</g>
<g>
</g>
<g>
</g>
<g>
</g>
<g>
</g>
<g>
</g>
<g>
</g>
</svg>
