<?xml version="1.0" encoding="utf-8"?>
<!-- Generator: Adobe Illustrator 16.0.0, SVG Export Plug-In . SVG Version: 6.00 Build 0)  -->
<!DOCTYPE svg PUBLIC "-//W3C//DTD SVG 1.1//EN" "http://www.w3.org/Graphics/SVG/1.1/DTD/svg11.dtd">
<svg version="1.1" id="btn_x5F_nm_x5F_104_1_" xmlns="http://www.w3.org/2000/svg" xmlns:xlink="http://www.w3.org/1999/xlink"
	 x="0px" y="0px" width="40px" height="40px" viewBox="0 0 40 40" enable-background="new 0 0 40 40" xml:space="preserve">
<g id="btn_x5F_nm_x5F_104">
	<g>
		<path fill-rule="evenodd" clip-rule="evenodd" fill="#00B4D8" d="M14,18l-3-3H7l-3,3v4l3,3h4l3-3V18z M33,2h-4l-3,3v4l3,3h4l3-3V5
			L33,2z M29,28l-3,3v4l3,3h4l3-3v-4l-3-3H29z M27,12l-2-2l-12,5l2,2L27,12z M15,23l-2,2l12,5l2-2L15,23z"/>
	</g>
</g>
</svg>
