<?xml version="1.0" encoding="utf-8"?>
<!-- Generator: Adobe Illustrator 16.0.0, SVG Export Plug-In . SVG Version: 6.00 Build 0)  -->
<!DOCTYPE svg PUBLIC "-//W3C//DTD SVG 1.1//EN" "http://www.w3.org/Graphics/SVG/1.1/DTD/svg11.dtd">
<svg version="1.1" xmlns="http://www.w3.org/2000/svg" xmlns:xlink="http://www.w3.org/1999/xlink" x="0px" y="0px" width="40px"
	 height="40px" viewBox="0 0 40 40" enable-background="new 0 0 40 40" xml:space="preserve">
<g id="icn_x5F_0002_x5F_1_1_" enable-background="new    ">
	<g id="icn_x5F_0002_x5F_1">
		<g>
			<polygon fill-rule="evenodd" clip-rule="evenodd" fill="#FFFFFF" points="20,20 20,7 17,8 17,20 17,23 20,23 32,23 33,20 			"/>
		</g>
	</g>
</g>
<g id="icn_x5F_0002_x5F_2_1_" enable-background="new    ">
	<g id="icn_x5F_0002_x5F_2">
		<g>
			<path fill-rule="evenodd" clip-rule="evenodd" fill="#C0C0C0" d="M20,35c-8.284,0-15-6.716-15-15S11.716,5,20,5V2
				C10.059,2,2,10.059,2,20s8.059,18,18,18c9.941,0,18-8.059,18-18h-3C35,28.284,28.284,35,20,35z M23.5,5C24.328,5,25,4.328,25,3.5
				S24.328,2,23.5,2S22,2.672,22,3.5S22.672,5,23.5,5z M29.5,8C30.328,8,31,7.328,31,6.5S30.328,5,29.5,5S28,5.672,28,6.5
				S28.672,8,29.5,8z M33.5,12c0.828,0,1.5-0.672,1.5-1.5S34.328,9,33.5,9S32,9.672,32,10.5S32.672,12,33.5,12z M36.5,18
				c0.828,0,1.5-0.672,1.5-1.5S37.328,15,36.5,15S35,15.672,35,16.5S35.672,18,36.5,18z"/>
		</g>
	</g>
</g>
</svg>
