<?xml version="1.0" encoding="utf-8"?>
<!-- Generator: Adobe Illustrator 16.0.0, SVG Export Plug-In . SVG Version: 6.00 Build 0)  -->
<!DOCTYPE svg PUBLIC "-//W3C//DTD SVG 1.1//EN" "http://www.w3.org/Graphics/SVG/1.1/DTD/svg11.dtd">
<svg version="1.1" xmlns="http://www.w3.org/2000/svg" xmlns:xlink="http://www.w3.org/1999/xlink" x="0px" y="0px" width="40px"
	 height="40px" viewBox="0 0 40 40" enable-background="new 0 0 40 40" xml:space="preserve">
<g id="icn_x5F_0003_x5F_3_1_" enable-background="new    ">
	<g id="icn_x5F_0003_x5F_3">
		<g>
			<path fill-rule="evenodd" clip-rule="evenodd" fill="#5F5F5F" d="M12,27c-5.438,3.469-8,4-8,4v6h15v-5C14.969,30.406,12,27,12,27
				z M28,27c0,0-2.969,3.406-7,5v5h15v-6C36,31,33.438,30.469,28,27z"/>
		</g>
	</g>
</g>
<g id="icn_x5F_0003_x5F_2_1_" enable-background="new    ">
	<g id="icn_x5F_0003_x5F_2">
		<g>
			<path fill-rule="evenodd" clip-rule="evenodd" fill="#474747" d="M26,22c0,0-2.5,3.188-6,5c-3.5-1.813-6-5-6-5
				c-0.012,2.348,0,4,0,4c2.438,3.5,6,4,6,4s3.563-0.5,6-4C26,26,26.012,24.348,26,22z"/>
		</g>
	</g>
</g>
<g id="icn_x5F_0003_x5F_1_1_" enable-background="new    ">
	<g id="icn_x5F_0003_x5F_1">
		<g>
			<path fill-rule="evenodd" clip-rule="evenodd" fill="#C0C0C0" d="M20,3C15.706,3,9.349,5.721,10,13c1.032,11.548,10,14,10,14
				s8.939-2.452,9.969-14C30.617,5.721,24.281,3,20,3z M12,12c0,0,7.367-0.512,7,7C19,19,10.789,20.68,12,12z M20.997,19
				c-0.366-7.512,6.978-7,6.978-7C29.182,20.68,20.997,19,20.997,19z"/>
		</g>
	</g>
</g>
</svg>
